<svg width="103" height="25" viewBox="0 0 103 25" fill="none" xmlns="http://www.w3.org/2000/svg">
<path d="M16.472 5.088C16.472 5.19467 16.4293 5.29067 16.344 5.376C16.28 5.44 16.1947 5.472 16.088 5.472H5.624C5.51733 5.472 5.464 5.52533 5.464 5.632V10.592C5.464 10.6987 5.51733 10.752 5.624 10.752H12.504C12.6107 10.752 12.696 10.7947 12.76 10.88C12.8453 10.944 12.888 11.0293 12.888 11.136V14.24C12.888 14.3467 12.8453 14.4427 12.76 14.528C12.696 14.592 12.6107 14.624 12.504 14.624H5.624C5.51733 14.624 5.464 14.6773 5.464 14.784V23.616C5.464 23.7227 5.42133 23.8187 5.336 23.904C5.272 23.968 5.18667 24 5.08 24H1.336C1.22933 24 1.13333 23.968 1.048 23.904C0.984 23.8187 0.952 23.7227 0.952 23.616V1.984C0.952 1.87733 0.984 1.792 1.048 1.728C1.13333 1.64267 1.22933 1.6 1.336 1.6H16.088C16.1947 1.6 16.28 1.64267 16.344 1.728C16.4293 1.792 16.472 1.87733 16.472 1.984V5.088ZM21.0023 5.696C20.2769 5.696 19.6689 5.46133 19.1783 4.992C18.7089 4.50133 18.4743 3.89333 18.4743 3.168C18.4743 2.42133 18.7089 1.81333 19.1783 1.344C19.6476 0.874666 20.2556 0.639999 21.0023 0.639999C21.7489 0.639999 22.3569 0.874666 22.8263 1.344C23.2956 1.81333 23.5303 2.42133 23.5303 3.168C23.5303 3.89333 23.2849 4.50133 22.7943 4.992C22.3249 5.46133 21.7276 5.696 21.0023 5.696ZM19.0823 24C18.9756 24 18.8796 23.968 18.7943 23.904C18.7303 23.8187 18.6983 23.7227 18.6983 23.616V7.904C18.6983 7.79733 18.7303 7.712 18.7943 7.648C18.8796 7.56267 18.9756 7.52 19.0823 7.52H22.8263C22.9329 7.52 23.0183 7.56267 23.0823 7.648C23.1676 7.712 23.2103 7.79733 23.2103 7.904V23.616C23.2103 23.7227 23.1676 23.8187 23.0823 23.904C23.0183 23.968 22.9329 24 22.8263 24H19.0823ZM36.1665 10.784C36.1665 10.8907 36.1238 10.9867 36.0385 11.072C35.9745 11.136 35.8892 11.168 35.7825 11.168H32.7105C32.6038 11.168 32.5505 11.2213 32.5505 11.328V18.112C32.5505 18.816 32.6892 19.3387 32.9665 19.68C33.2652 20.0213 33.7345 20.192 34.3745 20.192H35.4305C35.5372 20.192 35.6225 20.2347 35.6865 20.32C35.7718 20.384 35.8145 20.4693 35.8145 20.576V23.616C35.8145 23.8507 35.6865 23.9893 35.4305 24.032C34.5345 24.0747 33.8945 24.096 33.5105 24.096C31.7398 24.096 30.4172 23.808 29.5425 23.232C28.6678 22.6347 28.2198 21.5253 28.1985 19.904V11.328C28.1985 11.2213 28.1452 11.168 28.0385 11.168H26.2145C26.1078 11.168 26.0118 11.136 25.9265 11.072C25.8625 10.9867 25.8305 10.8907 25.8305 10.784V7.936C25.8305 7.82933 25.8625 7.744 25.9265 7.68C26.0118 7.59467 26.1078 7.552 26.2145 7.552H28.0385C28.1452 7.552 28.1985 7.49867 28.1985 7.392V3.584C28.1985 3.47733 28.2305 3.392 28.2945 3.328C28.3798 3.24267 28.4758 3.2 28.5825 3.2H32.1665C32.2732 3.2 32.3585 3.24267 32.4225 3.328C32.5078 3.392 32.5505 3.47733 32.5505 3.584V7.392C32.5505 7.49867 32.6038 7.552 32.7105 7.552H35.7825C35.8892 7.552 35.9745 7.59467 36.0385 7.68C36.1238 7.744 36.1665 7.82933 36.1665 7.936V10.784ZM47.4588 7.296C49.1654 7.296 50.5414 7.81867 51.5868 8.864C52.6321 9.90933 53.1548 11.328 53.1548 13.12V23.616C53.1548 23.7227 53.1121 23.8187 53.0268 23.904C52.9628 23.968 52.8774 24 52.7708 24H49.0268C48.9201 24 48.8241 23.968 48.7388 23.904C48.6748 23.8187 48.6428 23.7227 48.6428 23.616V14.048C48.6428 13.1947 48.3974 12.5013 47.9068 11.968C47.4374 11.4347 46.8081 11.168 46.0188 11.168C45.2294 11.168 44.5894 11.4347 44.0988 11.968C43.6294 12.5013 43.3948 13.1947 43.3948 14.048V23.616C43.3948 23.7227 43.3521 23.8187 43.2668 23.904C43.2028 23.968 43.1174 24 43.0108 24H39.2668C39.1601 24 39.0641 23.968 38.9788 23.904C38.9148 23.8187 38.8828 23.7227 38.8828 23.616V7.936C38.8828 7.82933 38.9148 7.744 38.9788 7.68C39.0641 7.59467 39.1601 7.552 39.2668 7.552H43.0108C43.1174 7.552 43.2028 7.59467 43.2668 7.68C43.3521 7.744 43.3948 7.82933 43.3948 7.936V9.056C43.3948 9.12 43.4161 9.16267 43.4588 9.184C43.5014 9.20533 43.5334 9.19467 43.5548 9.152C44.4294 7.91467 45.7308 7.296 47.4588 7.296ZM70.849 14.08C70.977 14.8907 71.0197 15.7973 70.977 16.8C70.9557 17.056 70.817 17.184 70.561 17.184H60.673C60.545 17.184 60.5023 17.2373 60.545 17.344C60.609 17.7707 60.7263 18.1973 60.897 18.624C61.4517 19.8187 62.5823 20.416 64.289 20.416C65.6543 20.3947 66.7317 19.84 67.521 18.752C67.6063 18.624 67.7023 18.56 67.809 18.56C67.873 18.56 67.9477 18.6027 68.033 18.688L70.337 20.96C70.4437 21.0667 70.497 21.1627 70.497 21.248C70.497 21.2907 70.4543 21.376 70.369 21.504C69.665 22.3787 68.7583 23.0613 67.649 23.552C66.5397 24.0213 65.3237 24.256 64.001 24.256C62.1663 24.256 60.609 23.84 59.329 23.008C58.0703 22.176 57.1637 21.0133 56.609 19.52C56.161 18.4533 55.937 17.056 55.937 15.328C55.937 14.1547 56.097 13.12 56.417 12.224C56.9077 10.7093 57.761 9.504 58.977 8.608C60.2143 7.712 61.6757 7.264 63.361 7.264C65.4943 7.264 67.201 7.88267 68.481 9.12C69.7823 10.3573 70.5717 12.0107 70.849 14.08ZM63.393 11.168C62.049 11.168 61.1637 11.7973 60.737 13.056C60.6517 13.3333 60.577 13.6747 60.513 14.08C60.513 14.1867 60.5663 14.24 60.673 14.24H66.209C66.337 14.24 66.3797 14.1867 66.337 14.08C66.2303 13.4613 66.177 13.1627 66.177 13.184C65.985 12.544 65.6437 12.0533 65.153 11.712C64.6837 11.3493 64.097 11.168 63.393 11.168ZM80.099 24.224C78.6697 24.224 77.4217 24.0213 76.355 23.616C75.2883 23.2107 74.4563 22.6453 73.859 21.92C73.283 21.1947 72.995 20.3733 72.995 19.456V19.136C72.995 19.0293 73.027 18.944 73.091 18.88C73.1763 18.7947 73.2723 18.752 73.379 18.752H76.931C77.0377 18.752 77.123 18.7947 77.187 18.88C77.2723 18.944 77.315 19.0293 77.315 19.136V19.168C77.315 19.6373 77.571 20.0427 78.083 20.384C78.6163 20.704 79.2777 20.864 80.067 20.864C80.7923 20.864 81.379 20.7253 81.827 20.448C82.275 20.1493 82.499 19.7867 82.499 19.36C82.499 18.976 82.307 18.688 81.923 18.496C81.539 18.304 80.9097 18.1013 80.035 17.888C79.0323 17.632 78.243 17.3867 77.667 17.152C76.3017 16.6827 75.2137 16.1067 74.403 15.424C73.5923 14.7413 73.187 13.76 73.187 12.48C73.187 10.9013 73.795 9.65333 75.011 8.736C76.2483 7.79733 77.8803 7.328 79.907 7.328C81.2723 7.328 82.467 7.552 83.491 8C84.515 8.42667 85.3043 9.03467 85.859 9.824C86.435 10.6133 86.723 11.5093 86.723 12.512C86.723 12.6187 86.6803 12.7147 86.595 12.8C86.531 12.864 86.4457 12.896 86.339 12.896H82.915C82.8083 12.896 82.7123 12.864 82.627 12.8C82.563 12.7147 82.531 12.6187 82.531 12.512C82.531 12.0427 82.2857 11.648 81.795 11.328C81.3257 11.008 80.6963 10.848 79.907 10.848C79.203 10.848 78.627 10.976 78.179 11.232C77.731 11.488 77.507 11.84 77.507 12.288C77.507 12.7147 77.7203 13.0347 78.147 13.248C78.595 13.4613 79.331 13.6853 80.355 13.92C80.5897 13.984 80.8563 14.0587 81.155 14.144C81.4537 14.208 81.7737 14.2933 82.115 14.4C83.6297 14.848 84.8243 15.424 85.699 16.128C86.5737 16.832 87.011 17.856 87.011 19.2C87.011 20.7787 86.3817 22.016 85.123 22.912C83.8857 23.7867 82.211 24.224 80.099 24.224ZM95.9427 24.224C94.5134 24.224 93.2654 24.0213 92.1988 23.616C91.1321 23.2107 90.3001 22.6453 89.7028 21.92C89.1268 21.1947 88.8388 20.3733 88.8388 19.456V19.136C88.8388 19.0293 88.8708 18.944 88.9348 18.88C89.0201 18.7947 89.1161 18.752 89.2228 18.752H92.7748C92.8814 18.752 92.9668 18.7947 93.0308 18.88C93.1161 18.944 93.1588 19.0293 93.1588 19.136V19.168C93.1588 19.6373 93.4148 20.0427 93.9268 20.384C94.4601 20.704 95.1214 20.864 95.9108 20.864C96.6361 20.864 97.2228 20.7253 97.6708 20.448C98.1188 20.1493 98.3428 19.7867 98.3428 19.36C98.3428 18.976 98.1508 18.688 97.7668 18.496C97.3828 18.304 96.7534 18.1013 95.8788 17.888C94.8761 17.632 94.0868 17.3867 93.5108 17.152C92.1454 16.6827 91.0574 16.1067 90.2468 15.424C89.4361 14.7413 89.0308 13.76 89.0308 12.48C89.0308 10.9013 89.6388 9.65333 90.8548 8.736C92.0921 7.79733 93.7241 7.328 95.7508 7.328C97.1161 7.328 98.3108 7.552 99.3348 8C100.359 8.42667 101.148 9.03467 101.703 9.824C102.279 10.6133 102.567 11.5093 102.567 12.512C102.567 12.6187 102.524 12.7147 102.439 12.8C102.375 12.864 102.289 12.896 102.183 12.896H98.7588C98.6521 12.896 98.5561 12.864 98.4708 12.8C98.4068 12.7147 98.3748 12.6187 98.3748 12.512C98.3748 12.0427 98.1294 11.648 97.6388 11.328C97.1694 11.008 96.5401 10.848 95.7508 10.848C95.0468 10.848 94.4708 10.976 94.0228 11.232C93.5748 11.488 93.3508 11.84 93.3508 12.288C93.3508 12.7147 93.5641 13.0347 93.9908 13.248C94.4388 13.4613 95.1748 13.6853 96.1988 13.92C96.4334 13.984 96.7001 14.0587 96.9988 14.144C97.2974 14.208 97.6174 14.2933 97.9588 14.4C99.4734 14.848 100.668 15.424 101.543 16.128C102.417 16.832 102.855 17.856 102.855 19.2C102.855 20.7787 102.225 22.016 100.967 22.912C99.7294 23.7867 98.0548 24.224 95.9427 24.224Z" fill="white"/>
</svg>
